<svg id="svg" xmlns="http://www.w3.org/2000/svg" xmlns:xlink="http://www.w3.org/1999/xlink" width="400" height="400" viewBox="0, 0, 400,400"><g id="svgg"><path id="path0" d="M40.134 16.323 C 40.134 16.428,39.789 16.515,39.366 16.515 C 38.726 16.515,38.598 16.579,38.598 16.899 C 38.598 17.160,38.470 17.283,38.196 17.283 C 37.956 17.283,37.754 17.437,37.694 17.667 C 37.638 17.878,37.472 18.051,37.323 18.051 C 37.174 18.051,36.970 18.267,36.870 18.531 C 36.770 18.795,36.556 19.011,36.395 19.011 C 36.181 19.011,36.102 19.219,36.102 19.779 C 36.102 20.202,36.015 20.547,35.910 20.547 C 35.785 20.547,35.718 22.948,35.718 27.364 C 35.718 31.781,35.785 34.181,35.910 34.181 C 36.032 34.181,36.102 35.724,36.102 38.424 C 36.102 42.505,36.116 42.671,36.486 42.767 C 36.855 42.864,36.870 43.029,36.870 46.974 C 36.870 50.824,36.894 51.104,37.254 51.464 C 37.611 51.821,37.638 52.104,37.638 55.436 C 37.638 58.585,37.683 59.120,38.009 59.805 C 38.329 60.478,38.389 61.108,38.441 64.370 C 38.493 67.594,38.549 68.192,38.816 68.403 C 39.083 68.614,39.145 69.289,39.237 72.976 C 39.348 77.426,39.415 77.964,39.858 77.964 C 40.066 77.964,40.127 78.933,40.173 82.973 C 40.225 87.482,40.264 88.006,40.566 88.227 C 40.867 88.447,40.903 88.879,40.903 92.358 C 40.903 96.082,40.919 96.248,41.287 96.344 C 41.655 96.440,41.671 96.607,41.673 100.406 C 41.676 104.548,41.745 105.233,42.157 105.233 C 42.352 105.233,42.420 106.153,42.471 109.449 C 42.527 113.128,42.576 113.698,42.858 113.914 C 43.138 114.129,43.190 114.671,43.242 117.935 C 43.295 121.204,43.348 121.757,43.639 122.079 C 43.927 122.397,43.975 122.857,43.976 125.315 C 43.978 129.418,44.128 130.773,44.579 130.773 C 44.917 130.773,44.935 131.038,44.935 136.038 C 44.935 141.415,44.977 141.911,45.425 141.911 C 45.630 141.911,45.694 142.752,45.741 146.055 C 45.793 149.739,45.837 150.227,46.135 150.445 C 46.436 150.664,46.471 151.091,46.471 154.446 C 46.471 158.326,46.526 158.809,46.962 158.809 C 47.167 158.809,47.231 159.664,47.277 163.050 C 47.328 166.707,47.379 167.322,47.649 167.519 C 47.918 167.716,47.973 168.333,48.037 171.842 C 48.099 175.315,48.157 175.970,48.418 176.161 C 48.676 176.350,48.738 176.998,48.810 180.276 C 48.892 184.012,48.912 184.178,49.316 184.461 C 49.731 184.752,49.736 184.821,49.736 190.043 C 49.736 195.121,49.751 195.335,50.110 195.429 C 50.464 195.521,50.487 195.753,50.542 199.745 C 50.594 203.527,50.635 203.984,50.936 204.152 C 51.238 204.321,51.272 204.716,51.272 208.059 C 51.272 211.922,51.326 212.386,51.773 212.386 C 51.993 212.386,52.040 213.114,52.040 216.515 C 52.040 220.387,52.064 220.667,52.424 221.027 C 52.778 221.381,52.809 221.669,52.810 224.628 C 52.812 228.346,52.951 229.861,53.290 229.861 C 53.466 229.861,53.548 230.900,53.614 233.985 C 53.692 237.669,53.740 238.152,54.060 238.506 C 54.386 238.866,54.427 239.359,54.503 243.912 C 54.581 248.605,54.609 248.927,54.946 249.015 C 55.282 249.103,55.305 249.364,55.305 253.199 C 55.305 257.411,55.356 257.897,55.795 257.897 C 56.000 257.897,56.064 258.738,56.110 262.042 C 56.162 265.726,56.206 266.213,56.505 266.432 C 56.805 266.651,56.841 267.078,56.841 270.448 C 56.841 273.964,56.867 274.246,57.225 274.604 C 57.581 274.960,57.609 275.246,57.611 278.493 C 57.614 282.306,57.723 283.437,58.089 283.437 C 58.269 283.437,58.349 284.483,58.414 287.688 C 58.487 291.265,58.549 291.973,58.804 292.159 C 59.059 292.346,59.128 293.169,59.248 297.439 C 59.381 302.145,59.416 302.505,59.748 302.592 C 60.083 302.679,60.106 302.954,60.106 307.001 C 60.106 311.156,60.120 311.322,60.490 311.418 C 60.859 311.515,60.874 311.680,60.874 315.625 C 60.874 319.434,60.901 319.758,61.247 320.104 C 61.587 320.445,61.625 320.817,61.679 324.405 C 61.730 327.824,61.781 328.381,62.074 328.704 C 62.367 329.028,62.410 329.505,62.410 332.444 C 62.410 336.069,62.510 337.014,62.896 337.014 C 63.080 337.014,63.158 337.673,63.208 339.655 C 63.269 342.090,63.308 342.329,63.706 342.727 C 63.962 342.983,64.138 343.394,64.138 343.735 C 64.138 344.183,64.224 344.311,64.522 344.311 C 64.778 344.311,64.906 344.439,64.906 344.695 C 64.906 344.951,65.034 345.079,65.290 345.079 C 65.542 345.079,65.675 345.207,65.675 345.450 C 65.675 345.654,65.847 345.876,66.059 345.943 C 66.270 346.010,66.443 346.187,66.443 346.337 C 66.443 346.486,66.659 346.662,66.923 346.729 C 67.187 346.795,67.403 346.959,67.403 347.092 C 67.403 347.346,68.224 347.576,69.133 347.576 C 69.501 347.576,69.693 347.693,69.763 347.960 C 69.848 348.286,70.025 348.344,70.931 348.344 C 71.801 348.344,72.036 348.414,72.204 348.728 C 72.369 349.037,72.606 349.112,73.412 349.112 C 74.208 349.112,74.465 349.191,74.655 349.496 C 74.859 349.821,75.103 349.880,76.256 349.880 C 77.430 349.880,77.629 349.930,77.712 350.244 C 77.785 350.524,78.055 350.639,78.886 350.743 C 79.500 350.820,80.059 351.005,80.181 351.172 C 80.339 351.388,80.890 351.492,82.237 351.563 C 83.827 351.646,84.091 351.708,84.172 352.018 C 84.249 352.313,84.452 352.376,85.317 352.376 C 86.208 352.376,86.384 352.435,86.469 352.760 C 86.556 353.090,86.731 353.145,87.718 353.145 C 88.704 353.145,88.880 353.199,88.966 353.529 C 89.054 353.867,89.228 353.913,90.422 353.913 C 91.581 353.913,91.807 353.968,91.983 354.297 C 92.153 354.615,92.385 354.681,93.334 354.681 C 94.331 354.681,94.479 354.728,94.479 355.046 C 94.479 355.351,94.676 355.434,95.676 355.550 C 96.341 355.627,96.960 355.810,97.071 355.960 C 97.195 356.130,97.808 356.277,98.707 356.352 C 99.672 356.432,100.216 356.569,100.363 356.769 C 100.514 356.973,101.004 357.090,101.930 357.142 C 103.055 357.206,103.294 357.279,103.374 357.582 C 103.452 357.881,103.650 357.945,104.497 357.945 C 105.317 357.945,105.573 358.023,105.764 358.329 C 105.970 358.658,106.212 358.713,107.443 358.713 C 108.753 358.713,108.881 358.748,108.881 359.097 C 108.881 359.438,109.009 359.482,110.011 359.482 C 110.948 359.482,111.157 359.542,111.234 359.836 C 111.305 360.110,111.576 360.216,112.426 360.304 C 113.136 360.377,113.611 360.533,113.764 360.743 C 113.949 360.996,114.412 361.089,115.843 361.164 C 117.432 361.247,117.696 361.309,117.777 361.619 C 117.854 361.914,118.057 361.978,118.923 361.978 C 119.813 361.978,119.990 362.037,120.075 362.362 C 120.160 362.688,120.337 362.746,121.249 362.746 C 122.068 362.746,122.415 362.838,122.708 363.130 C 123.006 363.428,123.348 363.514,124.237 363.514 C 125.186 363.514,125.418 363.580,125.588 363.898 C 125.758 364.216,125.990 364.282,126.939 364.282 C 127.956 364.282,128.084 364.325,128.084 364.666 C 128.084 364.998,128.213 365.050,129.029 365.050 C 130.130 365.050,130.581 365.188,130.581 365.524 C 130.581 365.757,131.899 366.005,133.152 366.009 C 133.457 366.010,133.815 366.158,133.947 366.339 C 134.123 366.580,134.548 366.688,135.536 366.744 C 136.660 366.807,136.900 366.880,136.979 367.183 C 137.057 367.483,137.255 367.547,138.102 367.547 C 138.922 367.547,139.178 367.625,139.370 367.931 C 139.575 368.259,139.818 368.315,141.048 368.315 C 142.359 368.315,142.487 368.349,142.487 368.699 C 142.487 369.040,142.615 369.083,143.617 369.083 C 144.585 369.083,144.761 369.138,144.847 369.467 C 144.932 369.794,145.109 369.851,146.039 369.851 C 146.904 369.851,147.196 369.932,147.449 370.242 C 147.709 370.561,148.078 370.655,149.457 370.751 C 150.827 370.847,151.182 370.937,151.336 371.225 C 151.484 371.502,151.750 371.579,152.553 371.579 C 153.418 371.579,153.596 371.640,153.680 371.964 C 153.767 372.295,153.942 372.348,154.951 372.348 C 155.823 372.348,156.121 372.416,156.121 372.615 C 156.121 372.996,156.556 373.116,157.939 373.116 C 158.987 373.116,159.162 373.167,159.249 373.500 C 159.336 373.831,159.511 373.884,160.520 373.884 C 161.562 373.884,161.690 373.926,161.690 374.268 C 161.690 374.609,161.818 374.652,162.829 374.652 C 163.783 374.652,163.987 374.712,164.085 375.019 C 164.183 375.329,164.465 375.409,165.862 375.525 C 167.078 375.626,167.625 375.759,167.907 376.022 C 168.181 376.278,168.581 376.380,169.305 376.380 C 170.121 376.380,170.358 376.455,170.523 376.764 C 170.689 377.073,170.925 377.148,171.732 377.148 C 172.527 377.148,172.785 377.228,172.975 377.532 C 173.178 377.858,173.423 377.916,174.576 377.916 C 175.775 377.916,175.948 377.962,176.037 378.301 C 176.122 378.629,176.298 378.685,177.244 378.685 C 178.190 378.685,178.366 378.741,178.452 379.069 C 178.538 379.396,178.714 379.453,179.644 379.453 C 180.497 379.453,180.805 379.536,181.054 379.833 C 181.306 380.134,181.715 380.241,183.005 380.344 C 184.274 380.444,184.693 380.552,184.888 380.827 C 185.079 381.095,185.387 381.181,186.162 381.181 C 187.024 381.181,187.201 381.242,187.286 381.565 C 187.372 381.896,187.548 381.949,188.556 381.949 C 189.424 381.949,189.726 382.018,189.726 382.215 C 189.726 382.558,190.324 382.711,191.672 382.715 C 192.591 382.717,192.769 382.775,192.854 383.101 C 192.941 383.432,193.116 383.485,194.125 383.485 C 194.777 383.485,195.295 383.570,195.295 383.677 C 195.295 383.800,197.024 383.869,200.096 383.869 C 203.169 383.869,204.897 383.800,204.897 383.677 C 204.897 383.571,205.409 383.485,206.049 383.485 C 206.945 383.485,207.286 383.400,207.585 383.101 C 207.876 382.811,208.225 382.717,209.019 382.717 C 209.872 382.717,210.107 382.645,210.274 382.333 C 210.441 382.020,210.676 381.949,211.547 381.949 C 212.452 381.949,212.629 381.891,212.714 381.565 C 212.797 381.249,212.976 381.181,213.724 381.181 C 214.681 381.181,215.843 380.866,215.843 380.606 C 215.843 380.522,216.545 380.391,217.403 380.315 C 218.702 380.200,218.978 380.116,219.057 379.815 C 219.137 379.508,219.338 379.453,220.378 379.453 C 221.475 379.453,221.603 379.413,221.603 379.069 C 221.603 378.728,221.731 378.685,222.743 378.685 C 223.713 378.685,223.900 378.628,224.004 378.301 C 224.112 377.961,224.294 377.916,225.571 377.916 C 226.855 377.916,227.027 377.874,227.117 377.532 C 227.203 377.202,227.379 377.148,228.365 377.148 C 229.325 377.148,229.528 377.090,229.607 376.789 C 229.684 376.493,229.941 376.412,231.056 376.333 C 231.979 376.267,232.463 376.144,232.572 375.949 C 232.682 375.752,233.219 375.620,234.295 375.526 C 235.610 375.411,235.873 375.331,235.954 375.021 C 236.035 374.711,236.227 374.652,237.158 374.652 C 238.104 374.652,238.280 374.596,238.366 374.268 C 238.453 373.933,238.628 373.884,239.734 373.884 C 240.765 373.884,241.064 373.812,241.331 373.500 C 241.582 373.206,241.898 373.116,242.667 373.116 C 243.477 373.116,243.714 373.041,243.879 372.732 C 244.047 372.418,244.281 372.348,245.152 372.348 C 246.038 372.348,246.236 372.286,246.314 371.984 C 246.394 371.681,246.633 371.608,247.758 371.545 C 248.745 371.489,249.170 371.381,249.346 371.140 C 249.480 370.956,249.840 370.811,250.162 370.811 C 251.540 370.811,252.571 370.562,252.665 370.206 C 252.742 369.908,252.953 369.851,253.983 369.851 C 255.081 369.851,255.209 369.811,255.209 369.467 C 255.209 369.126,255.337 369.083,256.348 369.083 C 257.319 369.083,257.505 369.026,257.609 368.699 C 257.717 368.360,257.900 368.315,259.176 368.315 C 260.460 368.315,260.633 368.272,260.722 367.931 C 260.808 367.602,260.984 367.547,261.939 367.547 C 262.866 367.547,263.076 367.485,263.171 367.184 C 263.267 366.884,263.521 366.808,264.645 366.745 C 265.580 366.692,266.073 366.575,266.224 366.370 C 266.369 366.174,266.926 366.028,267.873 365.941 C 268.933 365.843,269.395 365.710,269.657 365.430 C 269.915 365.153,270.261 365.050,270.940 365.050 C 271.709 365.050,271.888 364.984,271.971 364.666 C 272.060 364.328,272.233 364.282,273.432 364.282 C 274.585 364.282,274.829 364.224,275.033 363.898 C 275.224 363.592,275.480 363.514,276.300 363.514 C 277.167 363.514,277.344 363.454,277.429 363.130 C 277.515 362.800,277.691 362.746,278.677 362.746 C 279.663 362.746,279.839 362.692,279.925 362.362 C 280.008 362.046,280.187 361.978,280.939 361.978 C 282.231 361.978,283.053 361.782,283.053 361.474 C 283.053 361.287,283.321 361.209,283.965 361.208 C 285.310 361.205,286.318 361.000,286.318 360.730 C 286.318 360.492,287.291 360.256,288.286 360.252 C 288.685 360.250,288.814 360.156,288.814 359.866 C 288.814 359.521,288.942 359.482,290.062 359.482 C 291.055 359.482,291.389 359.403,291.695 359.097 C 291.987 358.805,292.335 358.713,293.153 358.713 C 294.066 358.713,294.242 358.656,294.327 358.329 C 294.413 358.001,294.589 357.945,295.545 357.945 C 296.493 357.945,296.680 357.887,296.783 357.561 C 296.883 357.247,297.074 357.177,297.829 357.177 C 299.092 357.177,299.952 356.984,299.952 356.701 C 299.952 356.544,300.450 356.427,301.434 356.352 C 302.381 356.281,302.988 356.142,303.115 355.969 C 303.224 355.819,303.810 355.635,304.417 355.559 C 305.331 355.445,305.521 355.358,305.521 355.051 C 305.521 354.718,305.667 354.681,306.959 354.681 C 308.190 354.681,308.433 354.625,308.638 354.297 C 308.832 353.986,309.086 353.913,309.961 353.913 C 310.883 353.913,311.060 353.855,311.145 353.529 C 311.231 353.203,311.407 353.145,312.313 353.145 C 313.184 353.145,313.418 353.074,313.586 352.760 C 313.743 352.467,313.988 352.376,314.625 352.376 C 315.841 352.376,316.659 352.174,316.659 351.872 C 316.659 351.686,316.926 351.608,317.571 351.606 C 318.970 351.603,319.923 351.399,319.923 351.103 C 319.923 350.945,320.133 350.839,320.451 350.838 C 321.671 350.833,322.420 350.605,322.420 350.239 C 322.420 349.920,322.582 349.880,323.878 349.880 C 325.175 349.880,325.347 349.837,325.436 349.496 C 325.523 349.166,325.698 349.112,326.685 349.112 C 327.671 349.112,327.847 349.058,327.933 348.728 C 328.018 348.401,328.195 348.344,329.117 348.344 C 329.992 348.344,330.246 348.270,330.440 347.960 C 330.614 347.682,330.888 347.576,331.431 347.576 C 332.350 347.576,332.789 347.421,332.789 347.097 C 332.789 346.963,332.962 346.807,333.173 346.752 C 333.385 346.697,333.557 346.521,333.557 346.362 C 333.557 346.176,333.823 346.028,334.307 345.947 C 334.972 345.834,335.070 345.747,335.179 345.164 C 335.247 344.803,335.471 344.417,335.678 344.307 C 335.936 344.168,336.054 343.904,336.054 343.463 C 336.054 342.981,336.150 342.794,336.438 342.719 C 336.781 342.630,336.822 342.457,336.822 341.111 C 336.822 339.811,336.875 339.570,337.206 339.363 C 337.569 339.136,337.590 338.915,337.590 335.294 C 337.590 331.846,337.624 331.445,337.926 331.276 C 338.227 331.108,338.268 330.651,338.321 326.850 C 338.369 323.334,338.426 322.612,338.653 322.612 C 339.044 322.612,339.090 322.208,339.203 317.837 C 339.292 314.422,339.347 313.896,339.638 313.683 C 339.931 313.469,339.980 312.948,340.053 309.339 C 340.124 305.843,340.182 305.205,340.447 305.012 C 340.718 304.814,340.767 304.122,340.821 299.738 C 340.877 295.287,340.922 294.664,341.205 294.457 C 341.485 294.253,341.535 293.691,341.589 290.160 C 341.645 286.453,341.683 286.065,342.021 285.728 C 342.363 285.385,342.391 285.050,342.391 281.251 C 342.391 277.307,342.406 277.141,342.775 277.045 C 343.143 276.948,343.159 276.783,343.159 273.059 C 343.159 269.580,343.194 269.148,343.495 268.928 C 343.791 268.712,343.842 268.196,343.927 264.546 C 344.015 260.755,344.054 260.387,344.391 260.141 C 344.728 259.894,344.765 259.536,344.842 255.764 C 344.913 252.238,344.970 251.621,345.242 251.408 C 345.519 251.191,345.567 250.529,345.624 246.136 C 345.682 241.723,345.728 241.084,346.008 240.879 C 346.285 240.677,346.335 240.103,346.385 236.550 C 346.436 232.963,346.484 232.422,346.769 232.205 C 347.055 231.988,347.103 231.440,347.154 227.740 C 347.201 224.375,347.264 223.524,347.469 223.524 C 347.909 223.524,347.960 223.038,347.960 218.826 C 347.960 214.897,347.975 214.731,348.344 214.635 C 348.712 214.538,348.728 214.373,348.728 210.649 C 348.728 207.229,348.767 206.735,349.051 206.527 C 349.483 206.211,349.652 204.727,349.672 201.077 C 349.686 198.496,349.730 198.091,350.024 197.876 C 350.327 197.655,350.367 197.110,350.426 192.316 C 350.488 187.397,350.520 186.974,350.859 186.635 C 351.193 186.301,351.224 185.952,351.224 182.588 C 351.224 179.351,351.265 178.862,351.560 178.536 C 351.853 178.212,351.904 177.652,351.955 174.141 C 352.009 170.457,352.046 170.086,352.387 169.744 C 352.734 169.398,352.760 169.075,352.760 165.265 C 352.760 161.320,352.776 161.155,353.145 161.058 C 353.514 160.962,353.529 160.796,353.529 156.728 C 353.529 152.775,353.552 152.491,353.885 152.385 C 354.331 152.244,354.485 150.856,354.487 146.968 C 354.488 145.169,354.560 144.223,354.699 144.177 C 355.095 144.045,355.240 142.386,355.248 137.899 C 355.256 133.849,355.290 133.384,355.593 133.162 C 355.892 132.944,355.936 132.450,355.990 128.676 C 356.039 125.318,356.105 124.436,356.306 124.436 C 356.737 124.436,356.793 123.948,356.793 120.196 C 356.793 116.819,356.820 116.536,357.177 116.179 C 357.537 115.818,357.561 115.538,357.561 111.688 C 357.561 107.743,357.576 107.578,357.945 107.482 C 358.315 107.385,358.329 107.220,358.329 103.151 C 358.329 99.201,358.353 98.914,358.686 98.809 C 359.126 98.669,359.289 97.093,359.289 92.983 C 359.289 90.555,359.332 90.170,359.626 89.955 C 359.927 89.735,359.968 89.211,360.026 84.845 C 360.082 80.637,360.133 79.933,360.410 79.625 C 360.683 79.321,360.739 78.660,360.791 75.064 C 360.840 71.751,360.906 70.859,361.105 70.859 C 361.520 70.859,361.588 70.181,361.591 66.033 C 361.594 62.233,361.610 62.067,361.978 61.970 C 362.346 61.874,362.362 61.708,362.362 58.011 C 362.362 54.409,362.387 54.127,362.746 53.769 C 363.106 53.409,363.130 53.129,363.130 49.365 C 363.130 45.616,363.154 45.338,363.487 45.232 C 364.660 44.860,364.587 18.819,363.413 18.819 C 363.258 18.819,363.130 18.646,363.130 18.435 C 363.130 18.179,363.002 18.051,362.746 18.051 C 362.490 18.051,362.362 17.923,362.362 17.667 C 362.362 17.419,362.234 17.283,362.000 17.283 C 361.800 17.283,361.594 17.111,361.538 16.899 C 361.461 16.605,361.276 16.515,360.748 16.515 C 360.368 16.515,360.058 16.428,360.058 16.323 C 360.058 16.195,306.609 16.131,200.096 16.131 C 93.583 16.131,40.134 16.195,40.134 16.323 M346.273 37.302 C 346.206 40.633,346.150 41.226,345.877 41.439 C 345.603 41.653,345.550 42.253,345.492 45.827 C 345.431 49.585,345.391 50.000,345.060 50.331 C 344.724 50.667,344.695 51.025,344.695 54.802 C 344.695 58.747,344.680 58.913,344.311 59.009 C 343.939 59.106,343.927 59.271,343.927 64.216 C 343.927 68.453,343.881 69.323,343.660 69.323 C 343.209 69.323,343.159 69.789,343.159 74.021 C 343.159 77.950,343.144 78.116,342.775 78.212 C 342.419 78.305,342.391 78.474,342.390 80.491 C 342.388 84.065,342.172 86.990,341.908 86.990 C 341.580 86.990,341.434 88.510,341.432 91.962 C 341.431 94.542,341.388 94.948,341.098 95.160 C 340.805 95.374,340.757 95.889,340.691 99.497 C 340.628 103.007,340.573 103.624,340.304 103.820 C 340.034 104.018,339.982 104.633,339.932 108.290 C 339.885 111.675,339.822 112.530,339.616 112.530 C 339.171 112.530,339.126 113.021,339.126 117.923 C 339.126 122.452,339.106 122.728,338.742 123.092 C 338.382 123.452,338.358 123.732,338.358 127.582 C 338.358 131.527,338.343 131.692,337.974 131.789 C 337.607 131.885,337.590 132.051,337.590 135.628 C 337.590 139.588,337.496 140.566,337.114 140.566 C 336.795 140.566,336.633 142.435,336.631 146.114 C 336.630 148.706,336.589 149.100,336.294 149.315 C 335.996 149.532,335.951 150.014,335.896 153.513 C 335.861 155.687,335.762 157.465,335.674 157.465 C 335.266 157.465,335.094 158.899,335.094 162.295 C 335.094 165.659,335.066 165.942,334.710 166.299 C 334.346 166.662,334.325 166.939,334.325 171.533 C 334.325 176.176,334.309 176.394,333.941 176.624 C 333.577 176.851,333.557 177.072,333.557 180.991 C 333.557 184.862,333.534 185.141,333.173 185.502 C 332.814 185.861,332.789 186.142,332.789 189.895 C 332.789 193.774,332.776 193.913,332.380 194.176 C 331.988 194.436,331.966 194.631,331.871 198.568 C 331.788 202.049,331.725 202.722,331.465 202.912 C 331.202 203.104,331.147 203.761,331.090 207.378 C 331.038 210.669,330.968 211.618,330.777 211.618 C 330.371 211.618,330.298 212.304,330.295 216.179 C 330.294 218.212,330.220 219.875,330.132 219.875 C 329.653 219.875,329.525 221.044,329.525 225.390 C 329.525 229.441,329.489 229.966,329.189 230.297 C 328.893 230.624,328.846 231.202,328.795 235.142 C 328.740 239.389,328.718 239.620,328.363 239.713 C 328.007 239.806,327.988 240.006,327.988 243.696 C 327.988 247.116,327.950 247.610,327.665 247.818 C 327.232 248.135,327.064 249.620,327.045 253.327 C 327.030 255.957,326.987 256.365,326.701 256.525 C 326.413 256.687,326.364 257.201,326.293 260.879 C 326.220 264.638,326.177 265.086,325.852 265.410 C 325.522 265.740,325.492 266.118,325.492 269.899 C 325.492 273.300,325.445 274.028,325.225 274.028 C 324.776 274.028,324.724 274.493,324.724 278.527 C 324.724 282.174,324.700 282.439,324.340 282.765 C 323.974 283.096,323.956 283.357,323.956 288.149 C 323.956 293.025,323.944 293.189,323.572 293.287 C 323.202 293.383,323.188 293.548,323.188 297.617 C 323.188 301.570,323.164 301.854,322.831 301.960 C 322.381 302.102,322.231 303.490,322.229 307.522 C 322.228 309.980,322.180 310.440,321.892 310.758 C 321.601 311.079,321.546 311.638,321.489 314.894 C 321.432 318.126,321.378 318.692,321.105 318.892 C 320.830 319.093,320.779 319.688,320.723 323.364 C 320.673 326.697,320.605 327.604,320.408 327.604 C 320.010 327.604,319.923 328.074,319.923 330.213 C 319.923 332.658,319.721 332.981,318.195 332.981 C 317.506 332.981,317.131 333.085,316.868 333.348 C 316.620 333.596,316.087 333.759,315.222 333.852 C 314.279 333.953,313.885 334.084,313.719 334.349 C 313.540 334.635,313.261 334.710,312.370 334.710 C 311.407 334.710,311.231 334.765,311.145 335.094 C 311.056 335.437,310.883 335.478,309.531 335.478 C 308.145 335.478,308.017 335.510,308.017 335.862 C 308.017 336.212,307.889 336.246,306.579 336.246 C 305.348 336.246,305.105 336.301,304.900 336.630 C 304.709 336.936,304.452 337.014,303.632 337.014 C 302.766 337.014,302.589 337.074,302.504 337.398 C 302.421 337.715,302.242 337.782,301.482 337.782 C 300.401 337.782,299.952 337.922,299.952 338.258 C 299.952 338.422,299.460 338.544,298.435 338.633 C 297.158 338.744,296.903 338.824,296.821 339.138 C 296.738 339.455,296.550 339.510,295.553 339.510 C 294.511 339.510,294.383 339.552,294.383 339.894 C 294.383 340.246,294.255 340.278,292.854 340.278 C 291.521 340.278,291.298 340.328,291.119 340.663 C 290.949 340.980,290.717 341.047,289.783 341.047 C 288.479 341.047,288.046 341.171,288.046 341.547 C 288.046 341.747,287.748 341.815,286.876 341.815 C 285.867 341.815,285.692 341.868,285.605 342.199 C 285.521 342.521,285.343 342.583,284.497 342.583 C 283.803 342.583,283.347 342.695,283.031 342.943 C 282.762 343.155,282.070 343.361,281.349 343.444 C 280.382 343.556,280.106 343.662,280.031 343.949 C 279.951 344.253,279.752 344.311,278.788 344.311 C 277.802 344.311,277.626 344.365,277.540 344.695 C 277.450 345.038,277.278 345.079,275.926 345.079 C 274.540 345.079,274.412 345.112,274.412 345.463 C 274.412 345.813,274.284 345.847,272.973 345.847 C 271.743 345.847,271.500 345.903,271.295 346.231 C 271.104 346.538,270.847 346.615,270.027 346.615 C 269.184 346.615,268.982 346.680,268.905 346.975 C 268.826 347.276,268.572 347.350,267.362 347.428 C 266.328 347.495,265.865 347.606,265.746 347.817 C 265.642 348.005,265.157 348.163,264.427 348.248 C 263.469 348.359,263.274 348.443,263.274 348.747 C 263.274 349.068,263.125 349.112,262.026 349.112 C 260.906 349.112,260.778 349.151,260.778 349.496 C 260.778 349.850,260.650 349.880,259.145 349.880 C 257.769 349.880,257.453 349.940,257.129 350.264 C 256.861 350.532,256.489 350.648,255.897 350.648 C 254.866 350.648,254.441 350.794,254.441 351.149 C 254.441 351.348,254.143 351.416,253.271 351.416 C 252.262 351.416,252.087 351.469,252.000 351.800 C 251.917 352.118,251.738 352.184,250.971 352.184 C 250.034 352.184,249.064 352.493,249.064 352.791 C 249.064 352.880,248.783 352.953,248.440 352.955 C 247.129 352.959,246.375 353.178,246.375 353.554 C 246.375 353.864,246.221 353.913,245.236 353.913 C 244.266 353.913,244.079 353.969,243.975 354.297 C 243.867 354.638,243.684 354.681,242.330 354.681 C 240.935 354.681,240.807 354.713,240.807 355.065 C 240.807 355.415,240.679 355.449,239.368 355.449 C 238.137 355.449,237.895 355.504,237.689 355.833 C 237.498 356.139,237.242 356.217,236.422 356.217 C 235.578 356.217,235.377 356.282,235.300 356.577 C 235.221 356.877,234.966 356.952,233.756 357.030 C 232.737 357.095,232.259 357.209,232.145 357.413 C 232.044 357.593,231.552 357.751,230.846 357.831 C 229.940 357.934,229.690 358.036,229.611 358.337 C 229.527 358.658,229.344 358.713,228.372 358.713 C 227.476 358.713,227.158 358.796,226.884 359.097 C 226.601 359.410,226.293 359.482,225.222 359.482 C 224.164 359.482,223.833 359.556,223.524 359.866 C 223.231 360.158,222.884 360.250,222.066 360.250 C 221.153 360.250,220.976 360.307,220.891 360.634 C 220.805 360.964,220.629 361.018,219.643 361.018 C 218.657 361.018,218.481 361.072,218.395 361.402 C 218.312 361.719,218.133 361.786,217.365 361.786 C 216.429 361.786,215.458 362.095,215.458 362.393 C 215.458 362.481,215.178 362.555,214.834 362.556 C 213.746 362.560,212.770 362.788,212.770 363.039 C 212.770 363.367,212.325 363.514,211.337 363.514 C 210.672 363.514,210.491 363.589,210.410 363.898 C 210.319 364.247,210.148 364.282,208.565 364.282 C 207.028 364.282,206.792 364.328,206.580 364.666 C 206.390 364.971,206.133 365.050,205.332 365.050 C 204.532 365.050,204.274 365.130,204.084 365.434 C 203.893 365.741,203.636 365.819,202.816 365.819 C 201.950 365.819,201.773 365.879,201.688 366.203 C 201.598 366.548,201.426 366.587,199.978 366.587 C 198.496 366.587,198.368 366.556,198.368 366.203 C 198.368 365.862,198.240 365.819,197.238 365.819 C 196.270 365.819,196.094 365.764,196.008 365.434 C 195.921 365.104,195.746 365.050,194.760 365.050 C 193.773 365.050,193.598 364.996,193.511 364.666 C 193.422 364.325,193.249 364.282,191.953 364.282 C 190.751 364.282,190.427 364.215,190.110 363.898 C 189.830 363.618,189.470 363.514,188.782 363.514 C 187.679 363.514,187.230 363.376,187.230 363.038 C 187.230 362.778,186.405 362.554,185.451 362.554 C 185.128 362.554,184.767 362.410,184.634 362.229 C 184.464 361.997,184.029 361.880,183.119 361.822 C 182.118 361.758,181.800 361.662,181.649 361.379 C 181.493 361.089,181.235 361.018,180.332 361.018 C 179.371 361.018,179.195 360.963,179.109 360.634 C 179.024 360.310,178.847 360.250,177.981 360.250 C 177.161 360.250,176.904 360.172,176.713 359.866 C 176.509 359.539,176.265 359.482,175.081 359.482 C 173.896 359.482,173.652 359.424,173.448 359.097 C 173.246 358.773,173.000 358.713,171.879 358.713 C 170.746 358.713,170.532 358.660,170.435 358.352 C 170.318 357.984,169.602 357.753,168.579 357.753 C 168.239 357.753,168.027 357.652,168.027 357.489 C 168.027 357.178,167.202 356.985,165.873 356.985 C 165.080 356.985,164.901 356.920,164.818 356.601 C 164.732 356.273,164.556 356.217,163.610 356.217 C 162.664 356.217,162.488 356.161,162.402 355.833 C 162.316 355.502,162.140 355.449,161.132 355.449 C 160.218 355.449,159.878 355.365,159.578 355.065 C 159.279 354.766,158.937 354.681,158.041 354.681 C 157.145 354.681,156.804 354.595,156.505 354.297 C 156.200 353.991,155.865 353.913,154.873 353.913 C 153.780 353.913,153.625 353.868,153.625 353.553 C 153.625 353.165,152.969 352.952,151.776 352.952 C 151.354 352.952,151.128 352.860,151.128 352.688 C 151.128 352.387,150.311 352.184,149.095 352.184 C 148.458 352.184,148.213 352.094,148.056 351.800 C 147.886 351.483,147.654 351.416,146.727 351.416 C 145.766 351.416,145.590 351.361,145.504 351.032 C 145.419 350.708,145.242 350.648,144.375 350.648 C 143.555 350.648,143.299 350.570,143.107 350.264 C 142.895 349.924,142.660 349.880,141.045 349.880 C 139.350 349.880,139.222 349.853,139.222 349.496 C 139.222 349.155,139.094 349.112,138.092 349.112 C 137.141 349.112,136.948 349.054,136.867 348.744 C 136.792 348.458,136.523 348.346,135.645 348.236 C 135.017 348.158,134.427 347.970,134.312 347.812 C 134.177 347.628,133.627 347.495,132.732 347.431 C 131.611 347.351,131.338 347.267,131.245 346.974 C 131.151 346.678,130.936 346.615,130.014 346.615 C 129.059 346.615,128.883 346.560,128.797 346.231 C 128.712 345.905,128.535 345.847,127.622 345.847 C 126.804 345.847,126.457 345.756,126.164 345.463 C 125.859 345.158,125.524 345.079,124.532 345.079 C 123.540 345.079,123.205 345.000,122.900 344.695 C 122.594 344.390,122.260 344.311,121.267 344.311 C 120.169 344.311,120.019 344.267,120.019 343.946 C 120.019 343.642,119.824 343.558,118.866 343.447 C 118.168 343.366,117.650 343.202,117.555 343.032 C 117.448 342.841,116.930 342.715,115.940 342.640 C 114.733 342.549,114.465 342.468,114.388 342.172 C 114.311 341.880,114.107 341.815,113.266 341.815 C 112.446 341.815,112.190 341.737,111.998 341.431 C 111.808 341.126,111.551 341.047,110.750 341.047 C 109.950 341.047,109.692 340.967,109.502 340.663 C 109.290 340.322,109.054 340.278,107.440 340.278 C 105.745 340.278,105.617 340.251,105.617 339.894 C 105.617 339.554,105.489 339.510,104.487 339.510 C 103.537 339.510,103.342 339.452,103.262 339.144 C 103.184 338.849,102.917 338.751,101.895 338.642 C 101.196 338.567,100.624 338.443,100.624 338.367 C 100.624 338.089,99.624 337.782,98.717 337.782 C 97.950 337.782,97.771 337.715,97.688 337.398 C 97.602 337.068,97.426 337.014,96.440 337.014 C 95.454 337.014,95.278 336.960,95.192 336.630 C 95.105 336.299,94.930 336.246,93.921 336.246 C 93.053 336.246,92.751 336.177,92.751 335.980 C 92.751 335.617,92.142 335.483,90.477 335.480 C 89.229 335.478,89.055 335.433,88.966 335.094 C 88.879 334.760,88.704 334.710,87.640 334.710 C 86.573 334.710,86.414 334.663,86.414 334.352 C 86.414 334.059,86.218 333.975,85.314 333.882 C 84.627 333.811,84.129 333.651,83.987 333.457 C 83.827 333.238,83.327 333.114,82.302 333.036 C 81.208 332.953,80.845 332.856,80.845 332.648 C 80.845 332.494,80.672 332.324,80.461 332.269 C 80.095 332.173,80.077 332.007,80.077 328.832 C 80.077 325.703,80.053 325.480,79.693 325.255 C 79.328 325.028,79.309 324.808,79.309 320.941 C 79.309 317.154,79.282 316.841,78.936 316.518 C 78.593 316.199,78.558 315.840,78.504 312.078 C 78.451 308.444,78.407 307.958,78.108 307.740 C 77.811 307.523,77.772 307.113,77.772 304.131 C 77.772 300.524,77.672 299.568,77.292 299.568 C 77.108 299.568,77.032 298.556,76.972 295.322 C 76.902 291.596,76.852 291.047,76.564 290.836 C 76.291 290.636,76.236 290.260,76.236 288.584 C 76.236 283.551,75.999 280.131,75.629 279.813 C 75.308 279.539,75.276 279.159,75.276 275.630 C 75.276 271.918,75.259 271.744,74.892 271.627 C 74.523 271.510,74.508 271.337,74.508 267.301 C 74.508 263.292,74.490 263.086,74.124 262.890 C 73.759 262.695,73.740 262.488,73.740 258.659 C 73.740 254.950,73.711 254.604,73.372 254.265 C 73.038 253.931,72.999 253.529,72.940 249.761 C 72.884 246.169,72.833 245.591,72.554 245.375 C 72.277 245.161,72.225 244.604,72.170 241.319 C 72.117 238.110,72.060 237.476,71.802 237.286 C 71.546 237.098,71.479 236.376,71.381 232.737 C 71.262 228.284,71.194 227.748,70.752 227.748 C 70.543 227.748,70.482 226.780,70.436 222.740 C 70.385 218.231,70.346 217.707,70.043 217.486 C 69.742 217.266,69.707 216.835,69.707 213.380 C 69.707 209.716,69.688 209.509,69.323 209.313 C 68.959 209.118,68.939 208.910,68.936 205.226 C 68.934 201.163,68.864 200.480,68.453 200.480 C 68.258 200.480,68.189 199.560,68.139 196.263 C 68.084 192.613,68.032 192.014,67.756 191.799 C 67.482 191.585,67.427 190.984,67.362 187.447 C 67.296 183.864,67.245 183.314,66.961 183.105 C 66.684 182.903,66.635 182.503,66.634 180.488 C 66.632 176.330,66.438 174.327,66.028 174.219 C 65.696 174.133,65.675 173.819,65.675 169.067 C 65.675 164.252,65.656 163.998,65.301 163.808 C 64.952 163.621,64.924 163.340,64.869 159.465 C 64.817 155.781,64.773 155.294,64.474 155.076 C 64.175 154.857,64.138 154.435,64.138 151.171 C 64.138 147.386,64.083 146.904,63.648 146.904 C 63.443 146.904,63.379 146.048,63.333 142.663 C 63.282 139.006,63.231 138.391,62.961 138.194 C 62.692 137.997,62.637 137.380,62.573 133.871 C 62.510 130.398,62.453 129.743,62.192 129.552 C 61.933 129.363,61.871 128.715,61.800 125.442 C 61.720 121.817,61.686 121.517,61.294 120.987 C 60.887 120.437,60.874 120.261,60.874 115.425 C 60.874 110.628,60.859 110.423,60.490 110.226 C 60.124 110.030,60.106 109.824,60.106 105.994 C 60.106 102.224,60.081 101.944,59.722 101.584 C 59.363 101.226,59.337 100.944,59.337 97.385 C 59.337 93.862,59.308 93.534,58.953 93.083 C 58.599 92.632,58.569 92.303,58.569 88.832 C 58.569 85.401,58.537 85.038,58.207 84.707 C 57.879 84.380,57.838 83.950,57.773 80.201 C 57.711 76.646,57.656 76.023,57.386 75.811 C 57.118 75.600,57.059 74.978,56.987 71.581 C 56.912 67.998,56.867 67.557,56.536 67.193 C 56.198 66.819,56.164 66.393,56.109 61.727 C 56.053 56.916,56.032 56.662,55.677 56.549 C 55.324 56.437,55.305 56.221,55.305 52.427 C 55.305 48.301,55.253 47.816,54.815 47.816 C 54.610 47.816,54.546 46.975,54.499 43.671 C 54.447 39.987,54.403 39.499,54.105 39.281 C 53.811 39.067,53.769 38.681,53.769 36.225 L 53.769 33.413 200.060 33.413 L 346.351 33.413 346.273 37.302 M108.169 77.580 C 108.085 77.903,107.907 77.964,107.059 77.964 C 105.645 77.964,104.849 78.152,104.849 78.487 C 104.849 78.642,104.676 78.814,104.465 78.869 C 104.252 78.925,104.081 79.131,104.081 79.331 C 104.081 79.561,103.945 79.693,103.710 79.693 C 103.505 79.693,103.284 79.866,103.217 80.077 C 103.125 80.365,102.926 80.461,102.417 80.461 C 101.913 80.461,101.716 80.554,101.645 80.827 C 101.592 81.029,101.384 81.237,101.182 81.289 C 100.981 81.342,100.816 81.523,100.816 81.691 C 100.816 81.869,100.655 81.997,100.432 81.997 C 100.184 81.997,100.048 82.125,100.048 82.359 C 100.048 82.559,99.877 82.765,99.664 82.821 C 99.434 82.881,99.280 83.083,99.280 83.323 C 99.280 83.588,99.157 83.725,98.920 83.725 C 98.649 83.725,98.531 83.915,98.438 84.494 C 98.355 85.014,98.217 85.262,98.011 85.262 C 97.844 85.262,97.665 85.426,97.612 85.628 C 97.559 85.829,97.351 86.037,97.150 86.090 C 96.937 86.146,96.783 86.354,96.783 86.588 C 96.783 86.809,96.665 86.990,96.519 86.990 C 96.211 86.990,96.015 87.812,96.015 89.104 C 96.015 89.856,95.947 90.035,95.631 90.118 C 95.288 90.208,95.247 90.380,95.247 91.750 C 95.247 93.121,95.207 93.293,94.863 93.383 C 94.541 93.467,94.479 93.645,94.479 94.479 C 94.479 95.314,94.541 95.492,94.863 95.576 C 95.235 95.673,95.247 95.838,95.247 100.760 C 95.247 105.683,95.259 105.848,95.631 105.945 C 96.003 106.042,96.015 106.207,96.015 110.904 C 96.015 115.902,96.058 116.371,96.516 116.371 C 96.736 116.371,96.784 117.064,96.785 120.259 C 96.786 124.955,96.926 126.740,97.291 126.740 C 97.492 126.740,97.552 127.156,97.552 128.557 C 97.552 130.093,97.608 130.427,97.916 130.717 C 98.202 130.987,98.310 131.463,98.419 132.933 C 98.541 134.589,98.599 134.806,98.919 134.806 C 99.157 134.806,99.280 134.942,99.280 135.208 C 99.280 135.448,99.434 135.650,99.664 135.710 C 99.910 135.774,100.048 135.972,100.048 136.261 C 100.048 136.508,100.207 136.866,100.401 137.054 C 100.596 137.243,100.809 137.549,100.875 137.734 C 100.942 137.919,101.128 138.070,101.290 138.070 C 101.456 138.070,101.584 138.237,101.584 138.454 C 101.584 138.710,101.712 138.838,101.968 138.838 C 102.180 138.838,102.352 138.928,102.352 139.037 C 102.352 139.282,103.618 140.566,103.860 140.566 C 103.957 140.566,104.081 140.739,104.136 140.951 C 104.192 141.162,104.374 141.335,104.543 141.335 C 104.711 141.335,104.849 141.455,104.849 141.602 C 104.849 141.908,105.257 142.103,105.898 142.103 C 106.179 142.103,106.377 142.243,106.441 142.487 C 106.496 142.698,106.673 142.871,106.834 142.871 C 106.995 142.871,107.182 143.044,107.249 143.255 C 107.342 143.548,107.540 143.639,108.080 143.639 C 108.581 143.639,108.859 143.752,109.029 144.023 C 109.207 144.308,109.478 144.408,110.083 144.409 C 111.563 144.412,112.914 144.642,112.914 144.892 C 112.914 145.352,114.217 145.362,173.260 145.365 L 232.741 145.367 232.741 150.026 C 232.741 154.476,232.724 154.695,232.357 154.924 C 232.146 155.056,231.973 155.271,231.973 155.402 C 231.973 155.592,224.299 155.631,194.784 155.591 C 157.873 155.541,157.588 155.544,156.797 155.927 C 156.359 156.139,155.660 156.314,155.244 156.316 C 154.208 156.319,153.625 156.499,153.625 156.815 C 153.625 156.989,153.401 157.081,152.979 157.081 C 151.556 157.081,150.564 157.317,150.448 157.683 C 150.385 157.880,150.167 158.041,149.963 158.041 C 149.720 158.041,149.592 158.174,149.592 158.425 C 149.592 158.745,149.464 158.809,148.824 158.809 C 148.184 158.809,148.056 158.873,148.056 159.193 C 148.056 159.450,147.928 159.578,147.672 159.578 C 147.455 159.578,147.288 159.706,147.288 159.870 C 147.288 160.031,147.072 160.245,146.807 160.346 C 146.543 160.446,146.327 160.650,146.327 160.799 C 146.327 160.947,146.155 161.114,145.943 161.169 C 145.732 161.225,145.559 161.402,145.559 161.563 C 145.559 161.724,145.386 161.911,145.175 161.978 C 144.964 162.045,144.791 162.267,144.791 162.471 C 144.791 162.714,144.659 162.842,144.407 162.842 C 144.151 162.842,144.023 162.970,144.023 163.226 C 144.023 163.482,143.895 163.610,143.639 163.610 C 143.362 163.610,143.255 163.738,143.255 164.070 C 143.255 164.322,143.134 164.576,142.986 164.632 C 142.838 164.689,142.616 165.044,142.491 165.421 C 142.367 165.798,142.153 166.107,142.017 166.107 C 141.745 166.107,141.532 167.089,141.529 168.363 C 141.527 168.931,141.445 169.179,141.259 169.179 C 140.873 169.179,140.759 169.616,140.759 171.093 C 140.759 172.237,140.711 172.411,140.374 172.499 C 139.710 172.673,139.908 176.860,140.581 176.860 C 140.661 176.860,140.755 180.097,140.790 184.053 C 140.848 190.495,140.888 191.272,141.175 191.495 C 141.462 191.717,141.502 192.507,141.562 199.103 C 141.621 205.651,141.663 206.483,141.940 206.638 C 142.188 206.776,142.281 207.288,142.390 209.113 C 142.512 211.132,142.573 211.427,142.892 211.528 C 143.193 211.624,143.255 211.834,143.255 212.761 C 143.255 213.716,143.310 213.892,143.639 213.978 C 143.860 214.036,144.023 214.240,144.023 214.458 C 144.023 214.676,144.186 214.880,144.407 214.938 C 146.013 215.358,144.044 215.446,131.908 215.499 L 119.025 215.554 118.675 215.987 C 118.382 216.349,118.137 216.419,117.156 216.419 C 116.243 216.419,115.902 216.503,115.602 216.803 C 115.391 217.014,115.046 217.187,114.834 217.187 C 114.578 217.187,114.450 217.315,114.450 217.571 C 114.450 217.852,114.322 217.955,113.970 217.955 C 113.706 217.955,113.317 218.128,113.106 218.339 C 112.895 218.550,112.598 218.723,112.447 218.723 C 112.296 218.723,112.120 218.886,112.057 219.086 C 111.993 219.286,111.771 219.494,111.563 219.548 C 111.356 219.603,111.186 219.785,111.186 219.953 C 111.186 220.122,111.066 220.259,110.920 220.259 C 110.774 220.259,110.516 220.469,110.348 220.726 C 110.173 220.993,109.814 221.219,109.510 221.254 C 109.046 221.307,108.970 221.409,108.918 222.036 C 108.873 222.581,108.774 222.756,108.510 222.756 C 108.255 222.756,108.131 222.953,108.043 223.501 C 107.959 224.027,107.810 224.276,107.539 224.347 C 107.327 224.403,107.153 224.580,107.153 224.741 C 107.153 224.902,106.980 225.089,106.769 225.156 C 106.558 225.223,106.385 225.410,106.385 225.571 C 106.385 225.732,106.212 226.083,106.001 226.352 C 105.690 226.747,105.617 227.131,105.617 228.368 C 105.617 229.735,105.576 229.907,105.233 229.997 C 104.858 230.095,104.849 230.259,104.849 237.078 C 104.849 243.861,104.860 244.063,105.233 244.263 C 105.606 244.463,105.617 244.665,105.617 251.263 C 105.617 258.191,105.649 258.665,106.118 258.665 C 106.341 258.665,106.385 259.778,106.388 265.434 C 106.390 272.402,106.434 273.068,106.887 273.068 C 107.106 273.068,107.153 273.874,107.154 277.628 C 107.155 281.736,107.190 282.247,107.512 282.775 C 107.727 283.127,107.924 283.953,108.008 284.848 C 108.117 286.008,108.229 286.387,108.515 286.565 C 108.812 286.751,108.881 287.021,108.881 287.996 C 108.881 289.070,108.922 289.198,109.265 289.198 C 109.522 289.198,109.650 289.326,109.650 289.582 C 109.650 289.838,109.778 289.966,110.034 289.966 C 110.346 289.966,110.418 290.094,110.418 290.656 C 110.418 291.185,110.508 291.370,110.802 291.447 C 111.013 291.502,111.186 291.704,111.186 291.896 C 111.186 292.088,111.349 292.297,111.549 292.360 C 111.749 292.424,111.957 292.645,112.011 292.853 C 112.066 293.061,112.242 293.231,112.403 293.231 C 112.564 293.231,112.751 293.404,112.818 293.615 C 112.885 293.826,113.107 293.999,113.311 293.999 C 113.554 293.999,113.682 294.132,113.682 294.383 C 113.682 294.639,113.810 294.767,114.066 294.767 C 114.322 294.767,114.450 294.895,114.450 295.151 C 114.450 295.407,114.578 295.535,114.834 295.535 C 115.090 295.535,115.218 295.663,115.218 295.919 C 115.218 296.201,115.346 296.303,115.699 296.303 C 115.981 296.303,116.179 296.414,116.179 296.571 C 116.179 296.718,116.513 296.972,116.922 297.135 C 117.330 297.299,117.717 297.567,117.780 297.732 C 117.843 297.897,118.023 298.032,118.179 298.032 C 118.336 298.032,118.547 298.181,118.649 298.363 C 118.793 298.620,119.163 298.711,120.291 298.768 C 121.310 298.820,121.747 298.916,121.747 299.088 C 121.747 299.420,122.189 299.568,123.181 299.568 C 123.846 299.568,124.027 299.643,124.107 299.952 C 124.194 300.283,124.369 300.336,125.378 300.336 C 126.420 300.336,126.548 300.378,126.548 300.720 C 126.548 301.062,126.676 301.104,127.700 301.104 C 128.699 301.104,128.853 301.152,128.853 301.464 C 128.853 301.829,129.502 302.064,130.509 302.064 C 130.760 302.064,131.138 302.237,131.349 302.448 C 131.628 302.728,131.989 302.832,132.671 302.832 C 133.447 302.832,133.626 302.899,133.709 303.217 C 133.795 303.544,133.971 303.601,134.901 303.601 C 135.702 303.601,136.123 303.703,136.481 303.985 C 136.766 304.208,137.260 304.369,137.666 304.369 C 138.154 304.369,138.433 304.483,138.602 304.753 C 138.793 305.059,139.049 305.137,139.874 305.137 C 140.744 305.137,140.921 305.197,141.006 305.521 C 141.092 305.847,141.268 305.905,142.181 305.905 C 143.108 305.905,143.255 305.955,143.255 306.270 C 143.255 306.574,143.450 306.658,144.408 306.769 C 145.102 306.850,145.624 307.014,145.718 307.182 C 145.812 307.350,146.304 307.506,146.949 307.573 C 147.782 307.659,148.045 307.765,148.118 308.043 C 148.199 308.353,148.407 308.401,149.657 308.401 C 150.934 308.401,151.117 308.446,151.224 308.785 C 151.327 309.108,151.515 309.169,152.407 309.169 C 153.307 309.169,153.484 309.228,153.569 309.554 C 153.654 309.877,153.831 309.938,154.696 309.938 C 155.527 309.938,155.763 310.011,155.929 310.322 C 156.080 310.604,156.331 310.706,156.873 310.706 C 157.436 310.706,157.635 310.792,157.707 311.068 C 157.782 311.353,158.055 311.460,158.978 311.567 C 159.732 311.655,160.154 311.791,160.154 311.949 C 160.154 312.207,160.975 312.434,161.906 312.434 C 162.250 312.434,162.458 312.535,162.458 312.701 C 162.458 313.085,162.894 313.202,164.316 313.202 C 165.405 313.202,165.579 313.252,165.667 313.586 C 165.753 313.915,165.929 313.970,166.897 313.970 C 167.899 313.970,168.027 314.014,168.027 314.354 C 168.027 314.695,168.155 314.738,169.157 314.738 C 170.125 314.738,170.301 314.793,170.387 315.122 C 170.473 315.453,170.649 315.506,171.657 315.506 C 172.674 315.506,172.828 315.554,172.828 315.867 C 172.828 316.238,173.479 316.467,174.534 316.467 C 174.832 316.467,175.138 316.625,175.279 316.851 C 175.444 317.114,175.727 317.235,176.180 317.235 C 176.607 317.235,176.907 317.352,177.027 317.566 C 177.170 317.823,177.539 317.914,178.651 317.970 C 179.868 318.032,180.105 318.099,180.186 318.407 C 180.265 318.708,180.462 318.771,181.333 318.771 C 182.223 318.771,182.400 318.830,182.485 319.155 C 182.570 319.481,182.747 319.539,183.646 319.539 C 184.539 319.539,184.727 319.600,184.830 319.923 C 184.933 320.250,185.120 320.307,186.091 320.307 C 187.082 320.307,187.230 320.355,187.230 320.672 C 187.230 320.976,187.425 321.060,188.382 321.171 C 189.016 321.245,189.534 321.383,189.534 321.478 C 189.534 321.574,190.096 321.651,190.783 321.651 C 191.971 321.651,192.031 321.673,192.031 322.111 C 192.031 322.717,192.319 322.804,194.328 322.804 C 195.857 322.804,196.028 322.840,196.119 323.188 C 196.274 323.779,203.617 323.785,203.933 323.195 C 204.109 322.866,204.375 322.810,206.004 322.763 L 207.873 322.708 207.934 322.180 C 207.994 321.661,208.018 321.651,209.315 321.651 C 210.041 321.651,210.683 321.573,210.743 321.477 C 210.802 321.382,211.282 321.244,211.810 321.171 C 212.580 321.065,212.770 320.967,212.770 320.673 C 212.770 320.353,212.917 320.307,213.940 320.307 C 214.949 320.307,215.124 320.254,215.211 319.923 C 215.297 319.594,215.473 319.539,216.441 319.539 C 217.443 319.539,217.571 319.496,217.571 319.155 C 217.571 318.813,217.699 318.771,218.741 318.771 C 219.750 318.771,219.925 318.718,220.012 318.387 C 220.097 318.061,220.275 318.002,221.194 318.000 C 222.511 317.997,223.140 317.844,223.140 317.527 C 223.140 317.378,223.548 317.246,224.226 317.176 C 224.823 317.115,225.378 316.958,225.459 316.827 C 225.539 316.697,226.064 316.472,226.625 316.329 C 227.186 316.185,227.716 315.941,227.803 315.787 C 227.903 315.607,228.264 315.506,228.813 315.506 C 229.458 315.506,229.724 315.413,229.905 315.122 C 230.091 314.826,230.353 314.738,231.059 314.738 C 231.712 314.738,231.973 314.662,231.973 314.471 C 231.973 314.115,232.399 313.970,233.447 313.970 C 234.152 313.970,234.332 313.899,234.414 313.586 C 234.503 313.245,234.676 313.202,235.950 313.202 C 237.195 313.202,237.399 313.154,237.481 312.840 C 237.555 312.556,237.803 312.460,238.643 312.390 C 239.305 312.335,239.795 312.188,239.931 312.003 C 240.057 311.829,240.609 311.646,241.246 311.567 C 242.144 311.454,242.343 311.364,242.343 311.068 C 242.343 310.754,242.494 310.706,243.482 310.706 C 244.453 310.706,244.639 310.649,244.743 310.322 C 244.846 309.999,245.034 309.938,245.926 309.938 C 246.826 309.938,247.003 309.879,247.088 309.554 C 247.165 309.257,247.350 309.169,247.898 309.169 C 248.342 309.169,248.762 309.026,249.020 308.785 C 249.339 308.488,249.697 308.401,250.610 308.401 C 251.627 308.401,251.802 308.349,251.889 308.017 C 251.969 307.712,252.152 307.633,252.783 307.631 C 253.855 307.627,254.441 307.451,254.441 307.131 C 254.441 306.966,254.651 306.865,254.993 306.865 C 256.092 306.865,256.745 306.641,256.745 306.265 C 256.745 305.952,256.899 305.905,257.915 305.905 C 258.924 305.905,259.099 305.852,259.186 305.521 C 259.271 305.196,259.448 305.137,260.338 305.137 C 261.228 305.137,261.405 305.078,261.490 304.753 C 261.575 304.429,261.752 304.369,262.618 304.369 C 263.427 304.369,263.686 304.292,263.838 304.007 C 263.994 303.717,264.306 303.629,265.402 303.567 C 266.410 303.510,266.836 303.403,267.013 303.161 C 267.152 302.971,267.509 302.832,267.858 302.832 C 268.225 302.832,268.592 302.682,268.792 302.448 C 268.985 302.223,269.361 302.063,269.702 302.062 C 270.658 302.057,271.147 301.856,271.147 301.466 C 271.147 301.151,271.300 301.104,272.318 301.104 C 273.326 301.104,273.502 301.051,273.588 300.720 C 273.674 300.391,273.850 300.336,274.818 300.336 C 275.820 300.336,275.948 300.293,275.948 299.952 C 275.948 299.611,276.076 299.568,277.087 299.568 C 278.058 299.568,278.245 299.511,278.349 299.184 C 278.454 298.853,278.639 298.800,279.690 298.800 C 281.082 298.800,281.517 298.680,281.517 298.299 C 281.517 298.152,281.698 298.032,281.919 298.032 C 282.155 298.032,282.361 297.878,282.418 297.661 C 282.484 297.408,282.751 297.251,283.264 297.164 C 283.830 297.069,284.013 296.948,284.013 296.671 C 284.013 296.431,284.147 296.303,284.398 296.303 C 284.654 296.303,284.782 296.175,284.782 295.919 C 284.782 295.641,284.910 295.535,285.246 295.535 C 285.909 295.535,286.318 295.344,286.318 295.035 C 286.318 294.888,286.456 294.767,286.624 294.767 C 286.792 294.767,286.973 294.602,287.026 294.401 C 287.078 294.199,287.286 293.992,287.487 293.939 C 287.688 293.886,287.910 293.684,287.982 293.489 C 288.053 293.294,288.270 292.929,288.463 292.677 C 288.656 292.425,288.814 292.058,288.814 291.861 C 288.814 291.631,288.951 291.503,289.198 291.503 C 289.454 291.503,289.582 291.375,289.582 291.119 C 289.582 290.863,289.710 290.735,289.966 290.735 C 290.286 290.735,290.350 290.606,290.350 289.966 C 290.350 289.341,290.418 289.198,290.714 289.198 C 291.128 289.198,291.311 288.841,291.311 288.030 C 291.311 287.683,291.411 287.470,291.575 287.470 C 291.884 287.470,292.079 286.647,292.079 285.343 C 292.079 284.660,292.167 284.367,292.415 284.229 C 292.712 284.063,292.758 283.639,292.811 280.590 C 292.867 277.364,292.895 277.133,293.243 277.042 C 293.601 276.948,293.615 276.720,293.615 271.043 C 293.615 265.643,293.644 265.120,293.951 264.895 C 294.256 264.672,294.296 264.054,294.383 258.187 C 294.471 252.291,294.509 251.708,294.815 251.537 C 295.124 251.364,295.151 250.870,295.151 245.475 C 295.151 240.102,295.180 239.580,295.487 239.355 C 295.913 239.044,296.065 236.975,296.092 231.124 C 296.109 227.401,296.150 226.872,296.447 226.543 C 296.753 226.206,296.789 225.489,296.849 218.655 C 296.907 211.980,296.950 211.098,297.233 210.782 C 297.512 210.470,297.559 209.708,297.610 204.650 C 297.663 199.486,297.703 198.849,297.994 198.637 C 298.286 198.423,298.325 197.767,298.375 192.241 C 298.429 186.351,298.447 186.074,298.807 185.882 C 299.169 185.688,299.184 185.444,299.184 179.830 C 299.184 174.236,299.201 173.963,299.568 173.596 C 299.936 173.228,299.952 172.956,299.952 167.185 C 299.952 161.496,299.972 161.153,300.305 161.066 C 300.731 160.955,300.912 158.460,300.912 152.724 C 300.912 149.693,300.959 149.122,301.246 148.684 C 301.546 148.227,301.588 147.407,301.653 140.775 C 301.716 134.201,301.760 133.350,302.038 133.146 C 302.314 132.945,302.359 132.238,302.409 127.332 C 302.440 124.261,302.534 121.747,302.618 121.747 C 303.109 121.747,303.217 120.544,303.217 115.040 C 303.217 109.472,303.227 109.307,303.601 109.210 C 303.975 109.112,303.985 108.948,303.985 102.948 C 303.985 96.995,303.998 96.779,304.369 96.547 C 304.699 96.341,304.753 96.099,304.753 94.817 C 304.753 93.455,304.720 93.327,304.369 93.327 C 304.016 93.327,303.985 93.199,303.985 91.773 C 303.985 90.380,303.945 90.208,303.601 90.118 C 303.261 90.029,303.217 89.856,303.217 88.611 C 303.217 87.471,303.150 87.156,302.868 86.953 C 302.676 86.815,302.463 86.551,302.394 86.366 C 302.325 86.181,302.136 86.030,301.974 86.030 C 301.791 86.030,301.680 85.854,301.680 85.565 C 301.680 84.911,301.490 84.494,301.193 84.494 C 301.053 84.494,300.885 84.325,300.819 84.119 C 300.754 83.913,300.541 83.695,300.347 83.633 C 300.153 83.571,299.949 83.351,299.895 83.143 C 299.840 82.935,299.658 82.765,299.490 82.765 C 299.312 82.765,299.184 82.605,299.184 82.381 C 299.184 82.125,299.056 81.997,298.800 81.997 C 298.544 81.997,298.416 81.869,298.416 81.613 C 298.416 81.365,298.288 81.229,298.054 81.229 C 297.854 81.229,297.648 81.057,297.592 80.845 C 297.534 80.624,297.330 80.461,297.112 80.461 C 296.894 80.461,296.690 80.297,296.632 80.077 C 296.555 79.783,296.370 79.693,295.841 79.693 C 295.279 79.693,295.151 79.622,295.151 79.309 C 295.151 79.085,295.023 78.925,294.845 78.925 C 294.677 78.925,294.496 78.761,294.444 78.561 C 294.335 78.143,293.654 77.964,292.173 77.964 C 291.325 77.964,291.147 77.903,291.063 77.580 C 290.904 76.973,108.328 76.973,108.169 77.580 M288.248 91.938 C 290.402 93.443,290.306 92.733,289.664 102.448 C 289.510 104.772,289.296 108.315,289.187 110.322 C 289.079 112.328,288.906 114.878,288.803 115.987 C 288.700 117.096,288.530 119.737,288.426 121.857 C 288.322 123.977,288.153 126.570,288.052 127.618 C 287.950 128.667,287.780 131.339,287.673 133.557 C 287.566 135.775,287.389 138.411,287.280 139.414 C 286.986 142.122,286.708 146.560,286.703 148.632 C 286.701 149.635,286.618 150.975,286.518 151.608 C 286.252 153.308,285.944 158.849,285.920 162.362 C 285.909 164.052,285.821 166.020,285.725 166.735 C 285.629 167.450,285.420 170.345,285.261 173.168 C 285.102 175.991,284.846 180.115,284.693 182.333 C 284.539 184.551,284.315 188.137,284.194 190.302 C 284.073 192.468,283.948 194.283,283.916 194.336 C 283.884 194.389,283.803 195.512,283.736 196.832 C 283.471 202.061,283.231 205.846,283.054 207.585 C 282.952 208.589,282.774 211.524,282.658 214.109 C 282.542 216.693,282.405 218.877,282.352 218.962 C 282.300 219.047,282.134 221.673,281.985 224.798 C 281.835 227.923,281.627 231.011,281.522 231.659 C 281.418 232.307,281.244 235.214,281.136 238.118 C 280.948 243.176,280.686 247.998,280.077 257.609 C 279.923 260.038,279.664 264.402,279.501 267.307 C 279.338 270.211,279.124 273.142,279.025 273.819 C 278.925 274.496,278.880 275.108,278.924 275.179 C 279.176 275.587,278.588 281.469,278.224 282.189 C 277.539 283.540,276.921 284.051,276.088 283.955 C 275.690 283.909,275.324 283.936,275.274 284.016 C 275.225 284.096,274.784 284.221,274.294 284.295 C 273.125 284.470,272.876 284.576,272.876 284.898 C 272.876 285.086,272.624 285.166,272.027 285.166 C 270.996 285.166,270.571 285.312,270.571 285.666 C 270.571 285.854,270.321 285.934,269.730 285.934 C 269.049 285.934,268.869 286.007,268.787 286.318 C 268.703 286.641,268.523 286.703,267.661 286.706 C 266.939 286.709,266.492 286.822,266.155 287.086 C 265.837 287.334,265.371 287.463,264.778 287.466 C 263.698 287.471,263.274 287.613,263.274 287.971 C 263.274 288.146,263.052 288.238,262.626 288.238 C 261.610 288.238,260.778 288.455,260.778 288.720 C 260.778 288.869,260.373 289.013,259.721 289.094 C 258.963 289.189,258.608 289.331,258.466 289.596 C 258.307 289.894,258.058 289.966,257.200 289.966 C 256.295 289.966,256.118 290.025,256.033 290.350 C 255.951 290.661,255.771 290.735,255.090 290.735 C 254.505 290.735,254.132 290.851,253.865 291.119 C 253.594 291.389,253.225 291.503,252.615 291.503 C 251.986 291.503,251.658 291.608,251.420 291.887 C 251.167 292.182,250.853 292.271,250.059 292.271 C 249.189 292.271,249.012 292.331,248.927 292.655 C 248.845 292.972,248.666 293.039,247.905 293.039 C 246.803 293.039,246.375 293.179,246.375 293.540 C 246.375 293.706,246.167 293.807,245.823 293.807 C 244.896 293.807,244.071 294.034,244.071 294.289 C 244.071 294.581,243.465 294.761,242.469 294.765 C 241.893 294.767,241.709 294.852,241.630 295.151 C 241.545 295.476,241.368 295.535,240.478 295.535 C 239.588 295.535,239.411 295.594,239.326 295.919 C 239.240 296.249,239.064 296.303,238.078 296.303 C 237.091 296.303,236.916 296.357,236.830 296.687 C 236.744 297.016,236.568 297.072,235.622 297.072 C 234.676 297.072,234.500 297.128,234.414 297.456 C 234.329 297.782,234.152 297.840,233.246 297.840 C 232.375 297.840,232.141 297.910,231.973 298.224 C 231.834 298.484,231.569 298.609,231.150 298.610 C 230.259 298.614,229.669 298.807,229.669 299.095 C 229.669 299.261,229.250 299.390,228.421 299.479 C 227.373 299.591,227.172 299.671,227.172 299.974 C 227.172 300.288,227.021 300.336,226.020 300.336 C 224.996 300.336,224.868 300.379,224.868 300.720 C 224.868 301.062,224.740 301.104,223.698 301.104 C 222.689 301.104,222.514 301.157,222.427 301.488 C 222.342 301.815,222.165 301.872,221.243 301.872 C 220.395 301.872,220.111 301.950,219.937 302.229 C 219.769 302.498,219.398 302.611,218.421 302.689 C 217.514 302.762,217.077 302.885,216.956 303.101 C 216.859 303.273,216.538 303.409,216.225 303.409 C 215.917 303.409,215.511 303.571,215.322 303.769 C 215.106 303.995,214.564 304.179,213.858 304.264 C 213.153 304.350,212.602 304.537,212.370 304.769 C 212.130 305.009,211.735 305.137,211.234 305.137 C 210.594 305.137,210.466 305.201,210.466 305.521 C 210.466 305.862,210.338 305.905,209.320 305.905 C 208.371 305.905,208.140 305.971,207.969 306.289 C 207.799 306.606,207.567 306.673,206.634 306.673 C 205.330 306.673,204.897 306.798,204.897 307.174 C 204.897 307.367,204.629 307.441,203.937 307.441 C 203.233 307.441,202.874 307.544,202.592 307.825 C 202.147 308.270,201.526 308.323,201.151 307.947 C 201.001 307.797,200.220 307.627,199.326 307.549 C 198.167 307.448,197.667 307.317,197.393 307.043 C 197.090 306.740,196.747 306.673,195.489 306.673 C 194.162 306.673,193.922 306.621,193.714 306.289 C 193.561 306.043,193.267 305.905,192.895 305.905 C 192.523 305.905,192.229 305.767,192.075 305.521 C 191.879 305.206,191.627 305.137,190.685 305.137 C 189.662 305.137,189.534 305.094,189.534 304.753 C 189.534 304.429,189.406 304.369,188.713 304.369 C 188.151 304.369,187.795 304.256,187.587 304.013 C 187.405 303.801,186.892 303.605,186.316 303.529 C 185.785 303.458,185.248 303.277,185.122 303.126 C 184.997 302.975,184.491 302.791,183.998 302.717 C 183.505 302.643,183.000 302.444,182.877 302.275 C 182.707 302.043,182.231 301.952,180.926 301.902 C 179.422 301.844,179.188 301.788,179.104 301.470 C 179.034 301.202,178.836 301.104,178.365 301.104 C 177.929 301.104,177.643 300.980,177.481 300.720 C 177.289 300.413,177.033 300.336,176.209 300.336 C 175.338 300.336,175.161 300.276,175.076 299.952 C 174.991 299.627,174.814 299.568,173.924 299.568 C 173.055 299.568,172.856 299.505,172.778 299.205 C 172.703 298.921,172.430 298.814,171.507 298.707 C 170.733 298.617,170.331 298.484,170.331 298.318 C 170.331 298.171,169.995 298.009,169.531 297.930 C 169.091 297.856,168.465 297.633,168.139 297.434 C 167.706 297.170,167.179 297.073,166.177 297.072 C 164.969 297.072,164.795 297.026,164.707 296.687 C 164.631 296.400,164.445 296.303,163.962 296.303 C 163.526 296.303,163.241 296.179,163.079 295.919 C 162.887 295.613,162.631 295.535,161.807 295.535 C 160.936 295.535,160.759 295.475,160.674 295.151 C 160.589 294.826,160.412 294.767,159.522 294.767 C 158.659 294.767,158.453 294.703,158.377 294.411 C 158.304 294.133,158.025 294.025,157.106 293.921 C 156.298 293.830,155.929 293.705,155.929 293.523 C 155.929 293.346,155.573 293.214,154.847 293.123 C 154.194 293.042,153.624 292.846,153.407 292.630 C 153.126 292.349,152.761 292.271,151.725 292.271 C 150.748 292.271,150.373 292.198,150.295 291.993 C 150.236 291.841,149.869 291.656,149.480 291.583 C 149.090 291.510,148.610 291.289,148.413 291.092 C 148.176 290.855,147.780 290.735,147.234 290.735 C 146.650 290.735,146.318 290.623,146.084 290.350 C 145.850 290.078,145.517 289.966,144.935 289.966 C 144.343 289.966,144.053 289.867,143.892 289.608 C 143.736 289.359,143.363 289.221,142.667 289.154 C 142.039 289.093,141.604 288.946,141.499 288.757 C 141.395 288.573,140.923 288.406,140.273 288.325 C 139.638 288.246,139.151 288.076,139.052 287.900 C 138.936 287.692,138.460 287.580,137.407 287.512 C 136.420 287.449,135.893 287.332,135.827 287.161 C 135.773 287.020,135.413 286.846,135.027 286.775 C 134.641 286.704,134.119 286.486,133.868 286.290 C 133.602 286.083,133.098 285.934,132.667 285.934 C 132.181 285.934,131.793 285.801,131.541 285.550 C 131.287 285.295,130.901 285.166,130.398 285.166 C 129.893 285.166,129.581 285.060,129.463 284.849 C 129.346 284.641,128.870 284.476,128.074 284.367 C 127.407 284.276,126.726 284.080,126.561 283.932 C 126.396 283.783,125.936 283.602,125.540 283.528 C 125.092 283.445,124.820 283.287,124.820 283.110 C 124.820 282.953,124.647 282.780,124.436 282.725 C 124.145 282.649,124.052 282.463,124.052 281.957 C 124.052 281.462,123.957 281.264,123.687 281.194 C 123.340 281.103,123.318 280.809,123.255 275.394 C 123.198 270.527,123.142 269.620,122.875 269.214 C 122.606 268.803,122.552 267.812,122.484 262.048 C 122.413 256.011,122.373 255.336,122.076 255.119 C 121.781 254.903,121.747 254.379,121.741 250.003 C 121.734 244.947,121.531 241.536,121.214 241.135 C 121.001 240.865,120.747 232.150,120.943 231.855 C 121.016 231.746,121.221 231.604,121.398 231.538 C 121.589 231.468,121.787 231.082,121.884 230.592 L 122.048 229.765 138.730 229.716 L 155.411 229.667 156.198 230.145 C 158.571 231.588,158.567 231.575,158.800 238.242 C 159.164 248.658,159.215 249.737,159.404 251.071 C 159.654 252.837,161.320 255.209,162.310 255.209 C 162.411 255.209,162.713 255.382,162.982 255.593 C 163.250 255.804,163.653 255.980,163.876 255.983 C 164.100 255.987,164.628 256.157,165.050 256.361 C 165.473 256.565,165.993 256.735,166.205 256.739 C 166.418 256.742,166.894 256.906,167.262 257.104 C 167.630 257.301,168.233 257.527,168.603 257.606 C 168.973 257.685,169.363 257.820,169.470 257.905 C 169.577 257.991,170.095 258.166,170.622 258.295 C 171.149 258.424,171.672 258.600,171.784 258.688 C 172.041 258.886,174.119 259.566,175.516 259.908 C 176.097 260.050,177.177 260.399,177.916 260.684 C 178.656 260.969,179.672 261.318,180.174 261.459 C 180.677 261.601,181.186 261.777,181.305 261.851 C 181.576 262.019,183.770 262.823,184.926 263.178 C 185.401 263.324,186.395 263.666,187.134 263.938 C 187.873 264.209,188.997 264.554,189.630 264.703 C 190.264 264.853,191.042 265.110,191.359 265.276 C 191.675 265.441,192.064 265.580,192.223 265.584 C 192.381 265.588,192.856 265.758,193.279 265.963 C 193.701 266.167,194.196 266.337,194.378 266.340 C 194.560 266.344,195.078 266.510,195.530 266.710 C 198.802 268.159,202.788 268.171,205.953 266.740 C 207.721 265.941,209.683 265.236,211.810 264.635 C 213.854 264.057,214.905 263.725,216.301 263.214 C 217.028 262.948,217.763 262.774,217.933 262.828 C 218.190 262.909,218.196 262.893,217.968 262.731 C 217.756 262.581,217.866 262.505,218.448 262.397 C 218.863 262.320,219.504 262.098,219.872 261.902 C 220.240 261.706,220.706 261.546,220.907 261.546 C 221.109 261.546,221.628 261.386,222.063 261.190 C 223.113 260.718,224.536 260.230,225.828 259.901 C 226.409 259.752,227.489 259.409,228.229 259.137 C 228.968 258.865,229.988 258.525,230.496 258.381 C 231.003 258.236,231.522 258.035,231.648 257.934 C 231.774 257.833,232.180 257.687,232.549 257.610 C 232.919 257.533,233.584 257.307,234.027 257.107 C 234.470 256.908,234.944 256.745,235.079 256.745 C 235.215 256.745,235.786 256.554,236.349 256.321 C 237.219 255.960,237.430 255.935,237.770 256.147 C 238.162 256.391,238.490 256.207,238.499 255.737 C 238.501 255.658,238.813 255.593,239.192 255.593 C 239.721 255.593,239.906 255.503,239.983 255.209 C 240.038 254.998,240.171 254.825,240.279 254.825 C 240.386 254.825,240.657 254.630,240.881 254.393 C 241.104 254.155,241.493 253.828,241.743 253.665 C 242.319 253.292,242.508 252.234,242.523 249.297 C 242.532 247.720,242.612 247.012,242.820 246.695 C 243.042 246.357,243.133 245.254,243.230 241.757 C 243.329 238.154,243.412 237.188,243.643 236.922 C 243.880 236.648,243.949 235.620,244.028 231.161 C 244.081 228.114,244.202 225.681,244.303 225.616 C 244.711 225.353,244.825 223.694,244.846 217.763 C 244.868 211.498,244.822 210.850,244.351 210.850 C 244.211 210.850,244.042 210.677,243.975 210.466 C 243.908 210.254,243.721 210.082,243.560 210.082 C 243.399 210.082,243.223 209.912,243.168 209.704 C 243.114 209.496,242.906 209.274,242.706 209.211 C 242.506 209.147,242.343 208.981,242.343 208.841 C 242.343 208.361,241.649 208.353,200.464 208.353 L 159.193 208.353 159.193 207.788 C 159.193 207.458,159.046 207.119,158.840 206.972 C 158.574 206.783,158.457 206.371,158.369 205.306 C 158.300 204.475,158.134 203.762,157.967 203.577 C 157.729 203.314,157.673 202.089,157.622 196.034 C 157.568 189.647,157.524 188.765,157.245 188.450 C 156.963 188.134,156.923 187.228,156.882 180.317 C 156.828 170.955,156.795 171.675,157.273 171.675 C 157.569 171.675,157.657 171.547,157.657 171.120 C 157.657 170.790,157.781 170.517,157.961 170.448 C 158.734 170.151,243.088 170.324,243.255 170.622 C 243.452 170.976,244.647 170.806,244.647 170.424 C 244.647 170.290,244.853 170.129,245.104 170.066 C 245.356 170.003,245.607 169.778,245.662 169.565 C 245.729 169.310,245.924 169.179,246.238 169.179 C 246.865 169.179,247.068 168.889,247.232 167.755 C 247.307 167.235,247.487 166.630,247.632 166.409 C 247.827 166.111,247.929 164.746,248.029 161.113 C 248.138 157.118,248.219 156.130,248.469 155.746 C 248.721 155.359,248.788 154.513,248.841 151.041 C 248.897 147.430,248.954 146.755,249.225 146.452 C 249.500 146.144,249.553 145.434,249.610 141.275 C 249.665 137.176,249.720 136.421,249.975 136.235 C 250.492 135.857,250.540 133.977,250.046 133.483 C 249.808 133.245,249.640 132.832,249.640 132.483 C 249.640 132.060,249.534 131.862,249.274 131.793 C 249.072 131.741,248.863 131.526,248.808 131.317 C 248.753 131.108,248.529 130.890,248.310 130.832 C 248.091 130.775,247.912 130.606,247.912 130.458 C 247.912 130.309,247.705 130.109,247.452 130.012 C 247.199 129.916,246.954 129.724,246.908 129.585 C 246.838 129.377,235.166 129.325,180.900 129.287 C 135.804 129.256,114.900 129.179,114.736 129.043 C 114.604 128.933,114.445 128.587,114.382 128.272 C 114.319 127.958,114.147 127.700,113.999 127.700 C 113.793 127.700,113.709 127.284,113.645 125.948 C 113.583 124.637,113.484 124.139,113.256 123.971 C 112.994 123.780,112.940 123.074,112.884 119.042 C 112.829 115.114,112.767 114.259,112.508 113.864 C 112.252 113.474,112.183 112.591,112.110 108.740 C 112.036 104.917,111.968 104.028,111.725 103.748 C 111.487 103.475,111.406 102.604,111.312 99.305 C 111.248 97.049,111.118 95.104,111.024 94.985 C 110.606 94.456,110.585 93.378,110.989 93.272 C 111.203 93.217,111.378 93.033,111.378 92.865 C 111.378 92.696,111.536 92.559,111.730 92.559 C 112.228 92.559,112.373 92.352,112.104 92.028 C 111.398 91.177,107.335 91.215,199.908 91.215 L 287.212 91.215 288.248 91.938 M227.940 229.646 C 227.940 234.647,227.928 234.812,227.556 234.909 C 227.186 235.006,227.172 235.171,227.172 239.636 L 227.172 244.263 226.452 244.266 C 225.449 244.269,224.868 244.453,224.868 244.766 C 224.868 244.930,224.658 245.031,224.316 245.031 C 223.272 245.031,222.515 245.273,222.420 245.636 C 222.344 245.927,222.137 245.991,221.275 245.991 C 220.385 245.991,220.208 246.050,220.123 246.375 C 220.042 246.686,219.861 246.759,219.181 246.759 C 218.595 246.759,218.222 246.876,217.955 247.144 C 217.699 247.400,217.315 247.528,216.803 247.528 C 216.163 247.528,216.035 247.592,216.035 247.912 C 216.035 248.254,215.907 248.296,214.864 248.296 C 213.878 248.296,213.679 248.353,213.599 248.659 C 213.520 248.962,213.280 249.035,212.156 249.099 C 211.169 249.154,210.744 249.263,210.568 249.503 C 210.435 249.684,210.112 249.832,209.849 249.832 C 209.154 249.832,208.209 250.200,208.087 250.517 C 208.019 250.693,207.701 250.792,207.207 250.792 C 206.561 250.792,206.433 250.856,206.433 251.176 C 206.433 251.518,206.305 251.560,205.263 251.560 C 204.254 251.560,204.079 251.613,203.992 251.944 C 203.907 252.269,203.730 252.328,202.840 252.328 C 201.950 252.328,201.773 252.387,201.688 252.712 C 201.598 253.058,201.426 253.096,199.978 253.096 C 198.496 253.096,198.368 253.066,198.368 252.712 C 198.368 252.372,198.240 252.328,197.238 252.328 C 196.270 252.328,196.094 252.273,196.008 251.944 C 195.922 251.617,195.746 251.560,194.815 251.560 C 193.885 251.560,193.708 251.503,193.623 251.176 C 193.545 250.878,193.361 250.792,192.799 250.792 C 192.257 250.792,192.052 250.703,191.983 250.437 C 191.888 250.074,191.131 249.832,190.086 249.832 C 189.743 249.832,189.534 249.731,189.534 249.564 C 189.534 249.189,189.101 249.064,187.797 249.064 C 186.864 249.064,186.632 248.997,186.462 248.680 C 186.294 248.366,186.060 248.296,185.189 248.296 C 184.283 248.296,184.106 248.238,184.021 247.912 C 183.943 247.613,183.759 247.528,183.197 247.528 C 182.635 247.528,182.452 247.442,182.374 247.144 C 182.288 246.816,182.112 246.759,181.181 246.759 C 180.250 246.759,180.074 246.703,179.988 246.375 C 179.902 246.046,179.726 245.991,178.758 245.991 C 177.768 245.991,177.628 245.945,177.628 245.619 C 177.628 245.325,177.447 245.220,176.770 245.118 C 176.299 245.047,175.814 244.871,175.694 244.726 C 175.574 244.581,175.053 244.407,174.536 244.338 L 173.596 244.214 173.596 240.338 C 173.596 236.728,173.569 236.434,173.212 236.050 C 172.864 235.677,172.828 235.372,172.828 232.868 C 172.828 230.259,172.805 230.092,172.444 229.997 C 172.102 229.908,172.060 229.735,172.060 228.430 C 172.060 227.230,171.990 226.890,171.675 226.552 C 171.464 226.325,171.291 225.946,171.291 225.709 C 171.291 225.447,171.141 225.230,170.907 225.156 C 170.696 225.089,170.523 224.910,170.523 224.759 C 170.523 224.521,174.441 224.484,199.232 224.484 L 227.940 224.484 227.940 229.646 " stroke="none" fill="#000000" fill-rule="evenodd"></path></g></svg>